<?xml version="1.0" encoding="UTF-8" standalone="no"?>
<svg
   viewBox="0 0 73 73"
   version="1.1"
   id="svg3"
   width="73"
   height="73"
   xmlns="http://www.w3.org/2000/svg"
   xmlns:svg="http://www.w3.org/2000/svg">
  <defs
     id="defs3" />
  <g
     fill="#ffffff"
     id="g3"
     transform="translate(-0.03543359,-0.01819666)">
    <path
       d="m 50.932469,19.750794 c -1.860589,0.114641 -4.507532,1.568465 -6.8649,3.940269 l -5.193682,5.193681 -16.047254,-5.390695 -3.128437,3.232889 12.111231,9.222267 -2.688554,2.689403 c -0.957893,0.951099 -1.762082,1.949754 -2.377749,2.923781 l -7.292044,-0.543485 -0.02972,0.02972 -1.787558,1.787557 5.592804,4.096521 1.663575,1.231334 1.231334,1.663575 4.09737,5.594502 1.788407,-1.788406 0.02972,-0.02972 -0.546033,-7.294593 c 0.974028,-0.616516 1.972682,-1.420704 2.924631,-2.377748 l 2.688554,-2.689403 9.222267,12.112929 3.23204,-3.128437 -5.388997,-16.049802 5.191134,-5.191134 c 3.164104,-3.144572 4.696902,-6.802059 3.594646,-8.424023 A 2.419359,2.419359 0 0 0 52.7472,20.30447 c -0.07643,-0.07728 -0.254759,-0.205506 -0.254759,-0.205506 -0.405915,-0.275139 -0.93921,-0.386384 -1.559123,-0.34817 z"
       style="font-variation-settings:normal;stroke-width:0.849196;-inkscape-stroke:none"
       id="path2" />
    <path
       d="m 62.355961,10.697669 c -14.239596,-14.2395967 -37.401609,-14.2389962 -51.640605,0 -14.2401968,14.240197 -14.2395963,37.401008 0,51.640605 14.239597,14.239597 37.400408,14.240197 51.640605,0 14.238997,-14.238996 14.239597,-37.401009 0,-51.640605 z m -3.483939,3.48394 c 12.357717,12.357716 12.357116,32.31681 0,44.673926 -12.357717,12.357718 -32.317411,12.357718 -44.675128,0 -12.3571166,-12.357116 -12.3577171,-32.317411 0,-44.675128 12.357717,-12.3577165 32.318012,-12.357116 44.675128,0 z"
       color="#000000"
       style="stroke-width:0.849196;-inkscape-stroke:none"
       id="path3" />
  </g>
</svg>
