<?xml version="1.0" encoding="UTF-8" standalone="no"?>
<!-- Generator: Adobe Illustrator 16.0.4, SVG Export Plug-In . SVG Version: 6.00 Build 0)  -->

<svg
   xmlns:dc="http://purl.org/dc/elements/1.1/"
   xmlns:cc="http://creativecommons.org/ns#"
   xmlns:rdf="http://www.w3.org/1999/02/22-rdf-syntax-ns#"
   xmlns:svg="http://www.w3.org/2000/svg"
   xmlns="http://www.w3.org/2000/svg"
   xmlns:sodipodi="http://sodipodi.sourceforge.net/DTD/sodipodi-0.dtd"
   xmlns:inkscape="http://www.inkscape.org/namespaces/inkscape"
   version="1.2"
   id="Layer_1"
   x="0px"
   y="0px"
   width="270px"
   height="10px"
   viewBox="1.5 0 270 10"
   overflow="scroll"
   xml:space="preserve"
   inkscape:version="0.48.4 r9939"
   sodipodi:docname="brand.svg"><metadata
     id="metadata6434"><rdf:RDF><cc:Work
         rdf:about=""><dc:format>image/svg+xml</dc:format><dc:type
           rdf:resource="http://purl.org/dc/dcmitype/StillImage" /></cc:Work></rdf:RDF></metadata><defs
     id="defs6432" /><sodipodi:namedview
     pagecolor="#ffffff"
     bordercolor="#666666"
     borderopacity="1"
     objecttolerance="10"
     gridtolerance="10"
     guidetolerance="10"
     inkscape:pageopacity="0"
     inkscape:pageshadow="2"
     inkscape:window-width="1600"
     inkscape:window-height="834"
     id="namedview6430"
     showgrid="false"
     inkscape:zoom="8.0453038"
     inkscape:cx="27.442131"
     inkscape:cy="-23.067238"
     inkscape:window-x="0"
     inkscape:window-y="27"
     inkscape:window-maximized="1"
     inkscape:current-layer="Layer_1" /><g
     style="font-size:169.98464966000000231px;font-style:normal;font-weight:normal;line-height:125%;letter-spacing:0px;word-spacing:0px;fill:#ffffff;fill-opacity:1;stroke:none;font-family:Sans"
     id="text7884"
     transform="matrix(0.07978473,0,0,0.07978473,-55.570223,-77.793268)"
     inkscape:export-filename="/home/andreasn/SparkleShare/rhsc-design/cockpit-logo.png"
     inkscape:export-xdpi="90"
     inkscape:export-ydpi="90"><path
       d="m 785.21421,978.46814 c -24.98772,-0.84992 -49.29556,12.91886 -60.51454,36.88666 -14.95863,32.1271 -3.22967,63.7443 28.21746,79.8928 14.10871,7.4793 50.14549,9.0092 70.88359,-10.1991 l -10.19908,-11.389 c -14.95863,11.389 -34.33691,16.1486 -52.18528,7.6494 -23.45786,-11.049 -33.48697,-36.0368 -22.43798,-59.4947 8.32924,-17.5084 27.70752,-29.23733 46.06584,-28.5574 6.6294,0.16999 20.73813,3.90966 24.13782,8.4992 l 11.89893,-10.709 c -4.24961,-3.90964 -5.09955,-4.58958 -10.53905,-7.13935 l -0.16998,0 c -7.98927,-3.73966 -16.82849,-5.09954 -25.15773,-5.43951"
       style="font-variant:normal;font-weight:500;font-stretch:normal;text-align:start;writing-mode:lr-tb;text-anchor:start;fill:#ffffff;fill-opacity:1;font-family:Beteckna;-inkscape-font-specification:Beteckna Medium"
       id="path7897"
       inkscape:connector-curvature="0" /><path
       d="m 913.79431,991.21699 c 4.58958,0 8.8392,0.50995 12.57886,1.18989 22.26797,4.92955 33.48698,23.45792 34.3369,42.49612 0.84992,21.7581 -11.38899,44.366 -35.69677,48.4457 -2.71976,0.5099 -5.6095,0.8499 -8.49924,0.8499 -3.56967,0 -6.79939,-0.34 -9.68912,-1.0199 -20.56812,-4.5896 -31.61715,-23.2879 -32.97702,-42.6662 -1.35988,-20.3981 7.81931,-41.30624 27.87748,-47.42568 3.56967,-1.18989 7.64931,-1.86983 12.06891,-1.86983 m 1.18989,-13.59877 c -5.94945,0 -11.38897,0.67994 -16.48851,2.03981 -27.70747,7.6493 -41.30627,34.33697 -40.62633,60.34457 0.84992,26.5176 16.31856,52.3553 46.74578,57.4548 3.56967,0.6799 7.47933,1.0199 11.55895,0.8499 4.24962,0.17 8.32926,-0.34 12.2389,-0.8499 32.807,-5.6095 49.29555,-33.317 48.78559,-60.8545 -0.50995,-25.4977 -15.8086,-50.65544 -46.40581,-57.28484 -4.92955,-1.0199 -10.19908,-1.69984 -15.80857,-1.69984"
       style="font-variant:normal;font-weight:500;font-stretch:normal;text-align:start;writing-mode:lr-tb;text-anchor:start;fill:#ffffff;fill-opacity:1;font-family:Beteckna;-inkscape-font-specification:Beteckna Medium"
       id="path7899"
       inkscape:connector-curvature="0" /><path
       d="m 1078.0393,978.46814 c -24.9877,-0.84992 -49.2955,12.91886 -60.5145,36.88666 -14.9586,32.1271 -3.2297,63.7443 28.2175,79.8928 14.1087,7.4793 50.1455,9.0092 70.8836,-10.1991 l -10.1991,-11.389 c -14.9587,11.389 -34.3369,16.1486 -52.1853,7.6494 -23.4579,-11.049 -33.487,-36.0368 -22.438,-59.4947 8.3293,-17.5084 27.7075,-29.23733 46.0659,-28.5574 6.6294,0.16999 20.7381,3.90966 24.1378,8.4992 l 11.8989,-10.709 c -4.2496,-3.90964 -5.0995,-4.58958 -10.539,-7.13935 l -0.17,0 c -7.9893,-3.73966 -16.8285,-5.09954 -25.1578,-5.43951"
       style="font-variant:normal;font-weight:500;font-stretch:normal;text-align:start;writing-mode:lr-tb;text-anchor:start;fill:#ffffff;fill-opacity:1;font-family:Beteckna;-inkscape-font-specification:Beteckna Medium"
       id="path7901"
       inkscape:connector-curvature="0" /><path
       d="m 1220.8981,981.35788 -46.2358,55.07502 0,-55.07502 -15.8086,0 0,116.94942 15.8086,0 0,-61.1945 56.0949,61.1945 19.5483,0 -57.4548,-62.0444 47.2557,-54.90502 -19.2083,0"
       style="font-variant:normal;font-weight:500;font-stretch:normal;text-align:start;writing-mode:lr-tb;text-anchor:start;fill:#ffffff;fill-opacity:1;font-family:Beteckna;-inkscape-font-specification:Beteckna Medium"
       id="path7903"
       inkscape:connector-curvature="0" /><path
       d="m 1295.1522,980.16799 0,117.45941 15.8086,-0.34 0,-50.8254 17.8484,-0.17 c 46.4057,0.34 45.8958,-66.80395 1.5298,-65.95403 l -35.1868,-0.16998 m 15.8086,13.93874 19.2082,0.16998 c 23.6279,0.50996 21.7581,38.07659 -0.8499,38.07659 l -18.3583,0 0,-38.24657"
       style="font-variant:normal;font-weight:500;font-stretch:normal;text-align:start;writing-mode:lr-tb;text-anchor:start;fill:#ffffff;fill-opacity:1;font-family:Beteckna;-inkscape-font-specification:Beteckna Medium"
       id="path7905"
       inkscape:connector-curvature="0" /><path
       d="m 1411.9184,979.65803 0.17,117.96937 15.2986,0 -0.17,-117.96937 -15.2986,0"
       style="font-variant:normal;font-weight:500;font-stretch:normal;text-align:start;writing-mode:lr-tb;text-anchor:start;fill:#ffffff;fill-opacity:1;font-family:Beteckna;-inkscape-font-specification:Beteckna Medium"
       id="path7907"
       inkscape:connector-curvature="0" /><path
       d="m 1473.3811,981.18789 0,13.59878 30.9372,0.16998 -0.5099,102.67075 0,0.3399 15.8086,-0.1699 0.5099,-102.84075 30.9372,-0.16998 0,-13.59878 -77.683,0"
       style="font-variant:normal;font-weight:500;font-stretch:normal;text-align:start;writing-mode:lr-tb;text-anchor:start;fill:#ffffff;fill-opacity:1;font-family:Beteckna;-inkscape-font-specification:Beteckna Medium"
       id="path7909"
       inkscape:connector-curvature="0" /></g></svg>