<svg xmlns="http://www.w3.org/2000/svg" viewBox="0 0 32 32"><defs/><g fill="#fff" class="ct-icon"><path class="ct-icon-circle" d="M16 0A16 16 0 000 16a16 16 0 0016 16 16 16 0 0016-16A16 16 0 0016 0zm0 2.5A13.5 13.5 0 0129.5 16 13.5 13.5 0 0116 29.5 13.5 13.5 0 012.5 16 13.5 13.5 0 0116 2.5z"/><path class="ct-icon-plane" d="M21.26 10c-.664-.024-1.67.498-2.575 1.398l-1.951 1.94-5.846-1.963-1.14 1.177 4.408 3.35-.986.98c-.349.346-.64.71-.87 1.066l-2.652-.197-.648.656 2.641 1.956L13.571 23l.652-.653-.196-2.679c.334-.22.677-.494 1.005-.822l1.038-1.031 3.382 4.442 1.177-1.14-1.973-5.875 1.89-1.879c1.207-1.2 1.763-2.603 1.248-3.149-.13-.136-.313-.205-.534-.213z"/></g></svg>
