<?xml version="1.0" encoding="UTF-8" standalone="no"?>
<svg
   viewBox="0 0 32 32"
   version="1.1"
   id="svg2"
   sodipodi:docname="cockpit-icon-gray.svg"
   inkscape:version="1.4 (e7c3feb100, 2024-10-09)"
   xmlns:inkscape="http://www.inkscape.org/namespaces/inkscape"
   xmlns:sodipodi="http://sodipodi.sourceforge.net/DTD/sodipodi-0.dtd"
   xmlns="http://www.w3.org/2000/svg"
   xmlns:svg="http://www.w3.org/2000/svg">
  <sodipodi:namedview
     id="namedview2"
     pagecolor="#ffffff"
     bordercolor="#999999"
     borderopacity="1"
     inkscape:showpageshadow="2"
     inkscape:pageopacity="0"
     inkscape:pagecheckerboard="0"
     inkscape:deskcolor="#d1d1d1"
     inkscape:zoom="23.84375"
     inkscape:cx="16.02097"
     inkscape:cy="16"
     inkscape:window-width="1920"
     inkscape:window-height="981"
     inkscape:window-x="0"
     inkscape:window-y="0"
     inkscape:window-maximized="1"
     inkscape:current-layer="g2" />
  <defs
     id="defs1" />
  <g
     fill="#fff"
     class="ct-icon"
     id="g2">
    <path
       class="ct-icon-circle"
       d="M16 0A16 16 0 000 16a16 16 0 0016 16 16 16 0 0016-16A16 16 0 0016 0zm0 2.5A13.5 13.5 0 0129.5 16 13.5 13.5 0 0116 29.5 13.5 13.5 0 012.5 16 13.5 13.5 0 0116 2.5z"
       id="path1"
       style="fill:#a3a3a3;fill-opacity:1" />
    <path
       class="ct-icon-plane"
       d="M21.26 10c-.664-.024-1.67.498-2.575 1.398l-1.951 1.94-5.846-1.963-1.14 1.177 4.408 3.35-.986.98c-.349.346-.64.71-.87 1.066l-2.652-.197-.648.656 2.641 1.956L13.571 23l.652-.653-.196-2.679c.334-.22.677-.494 1.005-.822l1.038-1.031 3.382 4.442 1.177-1.14-1.973-5.875 1.89-1.879c1.207-1.2 1.763-2.603 1.248-3.149-.13-.136-.313-.205-.534-.213z"
       id="path2"
       style="fill:#a3a3a3;fill-opacity:1" />
  </g>
</svg>
