<?xml version="1.0" encoding="UTF-8"?>
<svg id="Ebene_3" xmlns="http://www.w3.org/2000/svg" version="1.1" viewBox="0 0 515.9 68.6">
  <!-- Generator: Adobe Illustrator 29.2.1, SVG Export Plug-In . SVG Version: 2.1.0 Build 116)  -->
  <defs>
    <style>
      .st0 {
        fill: #e4054c;
      }

      .st1 {
        fill: none;
        stroke: #ecedee;
        stroke-miterlimit: 10;
        stroke-width: 2px;
      }

      .st2 {
        fill: #1d1d1b;
      }
    </style>
  </defs>
  <g>
    <path class="st2" d="M139.4,44.9v17.1h-6.7v-16.2c0-5.3-2.5-7.9-6.9-7.9s-8,3-8,9v15.1h-6.7v-29.9h6.4v3.9c2.2-2.7,5.7-4.2,9.9-4.2,6.9,0,12,4.1,12,13.1Z"/>
    <path class="st2" d="M175.7,49.3h-24.4c.9,4.4,4.7,7.2,10.1,7.2s6.2-1.1,8.5-3.3l3.9,4.3c-2.8,3.2-7.2,4.9-12.5,4.9-10.4,0-17.2-6.4-17.2-15.4s6.8-15.3,16.1-15.3,15.7,6.1,15.7,15.5,0,1.4-.1,2.1ZM151.2,44.7h17.7c-.6-4.3-4-7.3-8.8-7.3s-8.2,2.9-8.9,7.3Z"/>
    <path class="st2" d="M195.1,61.5c-1.5.6-2.4.9-4.2.9-7,0-11-3.7-11-10.8v-28.8h6.6v7.3h8.6v6h-8.6v15.3c0,3.1,1.6,4.8,4.4,4.8s2.2,0,4.2-.6v5.9Z"/>
    <path class="st2" d="M203,21.9v18.5h20.7v2.3h-20.7v19.2h-2.3V19.5h25.3v2.3h-23Z"/>
    <path class="st2" d="M235.7,62h-2.3V19.5h2.3v42.5Z"/>
    <path class="st2" d="M248.4,39.6h21.5v2.4h-21.5v17.7h23.3v2.3h-25.7V19.5h25.7v2.3h-23.3v17.7Z"/>
    <path class="st2" d="M280,62V19.5h2.3v40.1h21.2v2.3h-23.6Z"/>
    <path class="st2" d="M324.8,19.5c7.7,0,14.1,3.5,14.1,11.8v18.9c0,8.3-6.4,11.8-14.1,11.8h-14.8V19.5h14.8ZM324.8,59.7c6.5,0,11.8-2.7,11.8-9.4v-18.9c0-6.8-5.3-9.5-11.8-9.5h-12.4v37.8h12.4Z"/>
  </g>
  <line class="st1" x1="81" x2="81" y2="68.6"/>
  <path class="st0" d="M12.9,35.8c0-.5-.4-1-1-1-6.7-.5-11.9-6-11.9-12.7v-2.9c0-.2.2-.4.4-.4h12.1c.2,0,.4.2.4.4v14.6c0,.6.5,1,1,1h12.7c6.4,0,11.7,4.9,12.2,11,0,.6.5,1,1.1,1h10.8c.2,0,.4.2.4.4v15.2c0,.2-.2.4-.4.4h-11.4c-.2,0-.4-.2-.4-.4v-14.6c0-.6-.5-1.1-1.1-1.1H13.9c-.6,0-1,.4-1,1v14.6c0,.2-.2.4-.4.4H.4c-.2,0-.4-.2-.4-.4v-2.9c0-6.7,5.3-12.2,11.9-12.7.5,0,1-.5,1-1v-10.1h0Z"/>
  <g>
    <path class="st2" d="M431.4,28.8c-3.3,0-5.5,2.6-5.5,6.8s2.2,6.8,5.5,6.8,5.5-2.6,5.5-6.8-2.2-6.8-5.5-6.8Z"/>
    <path class="st2" d="M467.4,29.4c-.1.4-.3.8-.5,1.2l-2.5,6.6h6l-2.5-6.6c-.2-.4-.3-.8-.5-1.2Z"/>
    <path class="st2" d="M498.2,18.2h-97.7c-9.7,0-17.6,8-17.6,17.7s7.9,17.6,17.6,17.7h0s97.7,0,97.7,0c9.8,0,17.7-7.9,17.7-17.7s-7.9-17.7-17.7-17.7ZM422.1,43.8h-10.7v-16.4h2.1v14.6h8.5v1.8ZM431.4,44.1c-4.4,0-7.8-3.4-7.8-8.5s3.3-8.6,7.8-8.6,7.8,3.4,7.8,8.6-3.4,8.5-7.8,8.5ZM450.4,44.1c-4.7,0-7.8-3.3-7.8-8.6s3.4-8.5,7.9-8.5,6.7,2.5,7,5.7h-2.3c-.4-2.4-2.1-3.9-4.7-3.9s-5.5,2.5-5.5,6.7,2.3,6.8,5.5,6.8,4.4-1.5,4.9-3.8h2.2c-.4,3.5-3.2,5.6-7,5.6ZM473,43.8l-1.9-4.9h-7.4l-1.9,4.9h-2.2l6.6-16.4h2.6l6.6,16.4h-2.4ZM489.4,43.8h-10.7v-16.4h2.1v14.6h8.5v1.8Z"/>
  </g>
</svg>