<?xml version="1.0" encoding="UTF-8"?>
<svg xmlns="http://www.w3.org/2000/svg" version="1.1" viewBox="0 0 338.9 68.6">
  <!-- Generator: Adobe Illustrator 29.2.1, SVG Export Plug-In . SVG Version: 2.1.0 Build 116)  -->
  <defs>
    <style>
      .st0 {
        fill: #e4054c;
      }

      .st1 {
        fill: none;
        stroke: #ecedee;
        stroke-miterlimit: 10;
        stroke-width: 2px;
      }

      .st2, .st3 {
        display: none;
      }

      .st4 {
        fill: #1d1d1b;
      }

      .st3 {
        fill: #445055;
      }
    </style>
  </defs>
  <g id="Pfade">
    <g class="st2">
      <path class="st4" d="M94.1,32.4c3.2-1.6,7.2-2.6,11.2-2.6,7.4,0,14.4,3.2,14.4,11.6v21.7h-6.9v-21.6c-.2-3.7-3.7-5.2-7.1-5.2s-3.5.4-4.7,1.1v25.6h-6.9v-30.6Z"/>
      <path class="st4" d="M150.4,56.9c-2.5,4.5-7.4,6.7-11.7,6.7-6.4,0-12.9-3.7-12.9-11.2v-11.5c0-7.6,6.5-11.2,12.9-11.2s12.7,3.6,12.7,11.2v8.9h-18.6v2.3c0,3,2.8,4.7,5.8,4.7s4.9-.8,6-3.3l5.8,3.3ZM144.8,41.1c0-3-3-4.6-6-4.6s-6.1,1.5-6,4.7v3h12v-3.1Z"/>
      <path class="st4" d="M171.2,63.4c-.9.1-1.8.2-2.6.2-6.4,0-11.5-3.4-11.5-11.7v-29.3h6.2l.6,7.7h6.2v6.3h-6.2v15.2c0,5.2,3.5,5.5,7.2,5.5v6Z"/>
      <path class="st4" d="M180.4,20.8v19.5h21.7v2.5h-21.7v20.2h-2.5V18.4h26.6v2.5h-24.1Z"/>
      <path class="st4" d="M214.7,63h-2.5V18.4h2.5v44.6Z"/>
      <path class="st4" d="M228.2,39.4h22.6v2.5h-22.6v18.6h24.5v2.5h-27V18.4h27v2.5h-24.5v18.6Z"/>
      <path class="st4" d="M261.3,63V18.4h2.5v42.1h22.3v2.5h-24.8Z"/>
      <path class="st4" d="M308.3,18.4c8.1,0,14.8,3.7,14.8,12.4v19.8c0,8.7-6.7,12.3-14.8,12.3h-15.5V18.4h15.5ZM308.3,60.5c6.8,0,12.3-2.8,12.3-9.9v-19.8c0-7.1-5.5-10-12.3-10h-13v39.7h13Z"/>
    </g>
  </g>
  <g id="Ebene_3">
    <rect class="st3" x="81.9" y="146.7" width="299.9" height="100.8"/>
    <g>
      <path class="st4" d="M139.4,44.9v17.1h-6.7v-16.2c0-5.3-2.5-7.9-6.9-7.9s-8,3-8,9v15.1h-6.7v-29.9h6.4v3.9c2.2-2.7,5.7-4.2,9.9-4.2,6.9,0,12,4.1,12,13.1Z"/>
      <path class="st4" d="M175.7,49.3h-24.4c.9,4.4,4.7,7.2,10.1,7.2s6.2-1.1,8.5-3.3l3.9,4.3c-2.8,3.2-7.2,4.9-12.5,4.9-10.4,0-17.2-6.4-17.2-15.4s6.8-15.3,16.1-15.3,15.7,6.1,15.7,15.5,0,1.4-.1,2.1ZM151.2,44.7h17.7c-.6-4.3-4-7.3-8.8-7.3s-8.2,2.9-8.9,7.3Z"/>
      <path class="st4" d="M195.1,61.5c-1.5.6-2.4.9-4.2.9-7,0-11-3.7-11-10.8v-28.8h6.6v7.3h8.6v6h-8.6v15.3c0,3.1,1.6,4.8,4.4,4.8s2.2,0,4.2-.6v5.9Z"/>
      <path class="st4" d="M203,21.9v18.5h20.7v2.3h-20.7v19.2h-2.3V19.5h25.3v2.3h-23Z"/>
      <path class="st4" d="M235.7,62h-2.3V19.5h2.3v42.5Z"/>
      <path class="st4" d="M248.4,39.6h21.5v2.4h-21.5v17.7h23.3v2.3h-25.7V19.5h25.7v2.3h-23.3v17.7Z"/>
      <path class="st4" d="M280,62V19.5h2.3v40.1h21.2v2.3h-23.6Z"/>
      <path class="st4" d="M324.8,19.5c7.7,0,14.1,3.5,14.1,11.8v18.9c0,8.3-6.4,11.8-14.1,11.8h-14.8V19.5h14.8ZM324.8,59.7c6.5,0,11.8-2.7,11.8-9.4v-18.9c0-6.8-5.3-9.5-11.8-9.5h-12.4v37.8h12.4Z"/>
    </g>
    <line class="st1" x1="81" x2="81" y2="68.6"/>
    <path class="st0" d="M12.9,35.8c0-.5-.4-1-1-1-6.7-.5-11.9-6-11.9-12.7v-2.9c0-.2.2-.4.4-.4h12.1c.2,0,.4.2.4.4v14.6c0,.6.5,1,1,1h12.7c6.4,0,11.7,4.9,12.2,11,0,.6.5,1,1.1,1h10.8c.2,0,.4.2.4.4v15.2c0,.2-.2.4-.4.4h-11.4c-.2,0-.4-.2-.4-.4v-14.6c0-.6-.5-1.1-1.1-1.1H13.9c-.6,0-1,.4-1,1v14.6c0,.2-.2.4-.4.4H.4c-.2,0-.4-.2-.4-.4v-2.9c0-6.7,5.3-12.2,11.9-12.7.5,0,1-.5,1-1v-10.1h0Z"/>
  </g>
</svg>