<svg width="169" height="52" viewBox="0 0 169 52" fill="none" xmlns="http://www.w3.org/2000/svg"><g clip-path="url(#clip0_2608_7)"><path d="M8.42436 11.7508C8.42436 11.4071 8.15011 11.1226 7.80431 11.093C3.4401 10.7848 0 7.21733 0 2.86165V0.947516C0 0.80529 0.119241 0.686768 0.268292 0.686768H8.16203C8.31108 0.686768 8.43033 0.80529 8.43033 0.947516V10.453C8.43033 10.8204 8.73439 11.1108 9.10404 11.1108H17.3853C21.5707 11.1108 25.0048 14.2694 25.3387 18.2873C25.3625 18.6488 25.6725 18.9332 26.0482 18.9332H33.0834C33.2324 18.9332 33.3517 19.0517 33.3517 19.194V29.1024C33.3517 29.2446 33.2324 29.3632 33.0834 29.3632H25.6368C25.4877 29.3632 25.3685 29.2446 25.3685 29.1024V19.6266C25.3685 19.2414 25.0525 18.9332 24.659 18.9332H9.09807C8.72843 18.9332 8.42436 19.2295 8.42436 19.5969V29.1024C8.42436 29.2446 8.30512 29.3632 8.15607 29.3632H0.268292C0.119241 29.3632 0 29.2446 0 29.1024V27.1883C0 22.8326 3.4401 19.2651 7.80431 18.951C8.15011 18.9214 8.42436 18.6369 8.42436 18.2932V11.7449V11.7508Z" fill="black"></path><path d="M71.0258 12.1182V13.7242C71.0258 15.1168 69.9109 16.2547 68.5098 16.3258C68.4323 16.3258 68.3667 16.2724 68.3667 16.1954V12.1123C68.3667 12.0412 68.4264 11.9819 68.4979 11.9819H70.8887C70.9602 11.9819 71.0198 12.0412 71.0198 12.1123L71.0258 12.1182Z" fill="black"></path><path d="M70.8886 18.9387H68.4979C68.4263 18.9387 68.3667 18.998 68.3667 19.0691V29.2383C68.3667 29.3094 68.4263 29.3687 68.4979 29.3687H70.8886C70.9602 29.3687 71.0198 29.3094 71.0198 29.2383V19.0691C71.0198 18.998 70.9602 18.9387 70.8886 18.9387Z" fill="black"></path><path d="M161.023 18.4588C161.023 18.7195 160.832 18.9329 160.582 18.9743C159.324 19.1818 158.364 20.2544 158.364 21.5463V29.2383C158.364 29.3095 158.423 29.3687 158.495 29.3687H160.892C160.963 29.3687 161.023 29.3095 161.023 29.2383V19.4603C161.023 19.1699 161.261 18.9388 161.553 18.9388H168.869C168.94 18.9388 169 18.8795 169 18.8084V16.4617C169 16.3906 168.94 16.3313 168.869 16.3313H161.154C161.082 16.3313 161.023 16.3906 161.023 16.4617V18.4588Z" fill="black"></path><path d="M103.519 18.9387C103.447 18.9387 103.388 18.998 103.388 19.0691V24.1537C103.388 25.4456 104.348 26.5182 105.606 26.7256C105.856 26.7671 106.047 26.9804 106.047 27.2412V29.2383C106.047 29.3094 106.106 29.3686 106.178 29.3686H115.801C117.22 29.3686 118.382 28.2782 118.46 26.9034C118.46 26.8264 118.4 26.7671 118.329 26.7671H106.583C106.291 26.7671 106.053 26.536 106.053 26.2456V19.4661C106.053 19.1758 106.291 18.9446 106.583 18.9446H118.335C118.406 18.9446 118.466 18.8854 118.466 18.8143V16.4675C118.466 16.3964 118.406 16.3372 118.335 16.3372H108.712C107.394 16.3372 106.297 17.2794 106.088 18.512C106.047 18.7609 105.826 18.9446 105.564 18.9446H103.525L103.519 18.9387Z" fill="black"></path><path d="M100.592 26.7612C100.663 26.7612 100.723 26.702 100.723 26.6309V24.1537C100.723 22.7137 99.5303 21.5463 98.0636 21.5463H90.9688C89.7346 21.5463 88.6972 22.37 88.3932 23.49C88.3932 23.5078 88.3693 23.5197 88.3514 23.5197C88.3276 23.5197 88.3097 23.5019 88.3097 23.4782V19.4603C88.3097 19.1699 88.5482 18.9388 88.8403 18.9388H100.144C100.216 18.9388 100.276 18.8795 100.276 18.8084V16.4617C100.276 16.3906 100.216 16.3313 100.144 16.3313H90.9688C89.6512 16.3313 88.5541 17.2735 88.3455 18.5062C88.3037 18.7551 88.0831 18.9388 87.8208 18.9388H85.7818C85.7103 18.9388 85.6506 18.998 85.6506 19.0692V21.5463C85.6506 22.9863 86.843 24.1537 88.3097 24.1537H97.533C97.8251 24.1537 98.0636 24.3849 98.0636 24.6752V26.2397C98.0636 26.5301 97.8251 26.7612 97.533 26.7612H85.7878C85.7162 26.7612 85.6566 26.8205 85.6566 26.8916V29.2383C85.6566 29.3095 85.7162 29.3687 85.7878 29.3687H95.4105C96.7281 29.3687 97.8251 28.4265 98.0338 27.1938C98.0755 26.9449 98.2961 26.7612 98.5584 26.7612H100.597H100.592Z" fill="black"></path><path d="M76.2962 26.7616C76.5585 26.7616 76.7791 26.9513 76.8209 27.1942C77.0296 28.4269 78.1266 29.3691 79.4442 29.3691H83.3016C83.3732 29.3691 83.4328 29.3099 83.4328 29.2387V26.892C83.4328 26.8209 83.3732 26.7616 83.3016 26.7616H77.3157C77.0236 26.7616 76.7851 26.5305 76.7851 26.2401V9.94336C76.7851 9.87225 76.7255 9.81299 76.6539 9.81299H74.2572C74.1857 9.81299 74.126 9.87225 74.126 9.94336V26.6313C74.126 26.7024 74.1857 26.7616 74.2572 26.7616H76.2962Z" fill="black"></path><path d="M63.0903 18.9392C62.828 18.9392 62.6074 18.7495 62.5656 18.5066C62.357 17.2739 61.26 16.3317 59.9423 16.3317H52.4958C52.2036 16.3317 51.9651 16.1006 51.9651 15.8102V9.94336C51.9651 9.87225 51.9055 9.81299 51.834 9.81299H49.4372C49.3657 9.81299 49.3061 9.87225 49.3061 9.94336V13.7242C49.3061 15.0161 50.266 16.0887 51.5239 16.2961C51.7743 16.3376 51.9651 16.551 51.9651 16.8117V18.4651C51.9651 18.7258 51.7743 18.9392 51.5239 18.9807C50.266 19.1881 49.3061 20.2607 49.3061 21.5526V29.2447C49.3061 29.3158 49.3657 29.375 49.4372 29.375H51.834C51.9055 29.375 51.9651 29.3158 51.9651 29.2447V19.4666C51.9651 19.1762 52.2036 18.9451 52.4958 18.9451H62.0708C62.3629 18.9451 62.6014 19.1762 62.6014 19.4666V29.2447C62.6014 29.3158 62.661 29.375 62.7326 29.375H65.1293C65.2009 29.375 65.2605 29.3158 65.2605 29.2447V19.0755C65.2605 19.0044 65.2009 18.9451 65.1293 18.9451H63.0903V18.9392Z" fill="black"></path><path d="M135.35 18.9392C135.088 18.9392 134.867 18.7495 134.826 18.5066C134.617 17.2739 133.52 16.3317 132.202 16.3317H124.756C124.464 16.3317 124.225 16.1006 124.225 15.8102V9.94336C124.225 9.87225 124.165 9.81299 124.094 9.81299H121.697C121.626 9.81299 121.566 9.87225 121.566 9.94336V13.7242C121.566 15.0161 122.526 16.0887 123.784 16.2961C124.034 16.3376 124.225 16.551 124.225 16.8117V18.4651C124.225 18.7258 124.034 18.9392 123.784 18.9807C122.526 19.1881 121.566 20.2607 121.566 21.5526V29.2447C121.566 29.3158 121.626 29.375 121.697 29.375H124.094C124.165 29.375 124.225 29.3158 124.225 29.2447V19.4666C124.225 19.1762 124.464 18.9451 124.756 18.9451H134.331C134.623 18.9451 134.861 19.1762 134.861 19.4666V29.2447C134.861 29.3158 134.921 29.375 134.993 29.375H137.389C137.461 29.375 137.52 29.3158 137.52 29.2447V19.0755C137.52 19.0044 137.461 18.9451 137.389 18.9451H135.35V18.9392Z" fill="black"></path><path d="M155.705 21.5463V18.9388C155.705 17.4987 154.512 16.3313 153.046 16.3313H143.423C143.351 16.3313 143.292 16.3906 143.292 16.4617V18.4588C143.292 18.7195 143.101 18.9329 142.85 18.9743C141.592 19.1818 140.633 20.2544 140.633 21.5463V26.6309C140.633 26.702 140.692 26.7612 140.764 26.7612H142.803C143.065 26.7612 143.286 26.9509 143.327 27.1938C143.536 28.4265 144.633 29.3687 145.951 29.3687H154.238C154.309 29.3687 154.369 29.3095 154.369 29.2383V26.8916C154.369 26.8205 154.309 26.7612 154.238 26.7612H143.822C143.53 26.7612 143.292 26.5301 143.292 26.2397V24.1537H153.046C154.512 24.1537 155.705 22.9863 155.705 21.5463ZM153.046 21.0248C153.046 21.3151 152.807 21.5463 152.515 21.5463H145.951C144.717 21.5463 143.679 22.37 143.375 23.49C143.375 23.5078 143.351 23.5197 143.333 23.5197C143.31 23.5197 143.292 23.5019 143.292 23.4782V19.4603C143.292 19.1699 143.53 18.9388 143.822 18.9388H152.509C152.801 18.9388 153.04 19.1699 153.04 19.4603V21.0248H153.046Z" fill="black"></path><path d="M51.3928 49.8023C52.621 49.8023 53.2112 49.0971 53.3007 48.3445H52.5375C52.4302 49.0023 51.9294 49.2097 51.3988 49.2097C50.6535 49.2097 50.0812 48.6467 50.0633 47.6689H53.3364V47.5148C53.3364 46.1341 52.627 45.2392 51.3392 45.2392C50.1587 45.2392 49.2882 46.1933 49.2882 47.5089C49.2882 48.9964 50.0931 49.8023 51.3809 49.8023H51.3928ZM50.0931 47.1237C50.1467 46.4007 50.6237 45.8437 51.3451 45.8437C52.0665 45.8437 52.5196 46.3593 52.5196 47.1237H50.0931ZM55.1489 49.666V47.0704C55.1489 46.4126 55.4351 45.8437 56.0074 45.8437C56.544 45.8437 56.7408 46.2704 56.7408 46.9993V49.666H57.4741V47.0348C57.4741 46.4007 57.7543 45.8437 58.3446 45.8437C58.8811 45.8437 59.0719 46.2526 59.0719 46.9578V49.6719H59.8052V46.8452C59.8052 45.7666 59.3044 45.2451 58.5532 45.2451C57.9809 45.2451 57.5695 45.577 57.325 46.057C57.1283 45.5059 56.7169 45.2451 56.24 45.2451C55.763 45.2451 55.3516 45.5237 55.1489 45.9681V45.3874H54.4156V49.6719H55.1489V49.666ZM61.7727 51.5446V49.0734C62.0529 49.5119 62.5716 49.8023 63.1857 49.8023C64.3781 49.8023 65.189 48.8778 65.189 47.5148C65.189 46.1518 64.4437 45.2392 63.2036 45.2392C62.5597 45.2392 62.0231 45.5889 61.7727 45.9681V45.3814H61.0155V51.5446H61.7727ZM63.0724 49.2038C62.2855 49.2038 61.737 48.5163 61.737 47.5148C61.737 46.5133 62.2914 45.8437 63.0724 45.8437C63.8535 45.8437 64.3901 46.5311 64.3901 47.5148C64.3901 48.4986 63.8714 49.2038 63.0724 49.2038ZM68.1938 49.8023C69.428 49.8023 70.3163 48.8838 70.3163 47.5148C70.3163 46.1459 69.428 45.2392 68.1938 45.2392C66.9597 45.2392 66.0714 46.1815 66.0714 47.5148C66.0714 48.8482 66.9478 49.8023 68.1938 49.8023ZM68.1938 49.2038C67.3711 49.2038 66.8703 48.5163 66.8703 47.5148C66.8703 46.5133 67.389 45.8437 68.1938 45.8437C68.9987 45.8437 69.5174 46.5133 69.5174 47.5148C69.5174 48.5163 69.0166 49.2038 68.1938 49.2038ZM72.9575 49.666L73.7743 46.9341C73.8101 46.8274 73.8399 46.7207 73.8757 46.6141C73.9114 46.7326 73.9293 46.8274 73.9651 46.9341L74.77 49.666H75.6225L76.7494 45.3814H76.016L75.2827 48.4867C75.2648 48.5934 75.235 48.7119 75.2112 48.8186C75.1754 48.7178 75.1515 48.6112 75.1158 48.4986L74.3288 45.8852H73.4583L72.6773 48.4986C72.6534 48.623 72.6177 48.7297 72.5819 48.8364C72.564 48.7356 72.5342 48.6289 72.5104 48.4986L71.7949 45.3874H70.996L72.1228 49.6719H72.9635L72.9575 49.666ZM79.5813 49.8023C80.8095 49.8023 81.3998 49.0971 81.4892 48.3445H80.726C80.6187 49.0023 80.1179 49.2097 79.5873 49.2097C78.8421 49.2097 78.2697 48.6467 78.2518 47.6689H81.525V47.5148C81.525 46.1341 80.8155 45.2392 79.5277 45.2392C78.3472 45.2392 77.4767 46.1933 77.4767 47.5089C77.4767 48.9964 78.2816 49.8023 79.5694 49.8023H79.5813ZM78.2816 47.1237C78.3353 46.4007 78.8122 45.8437 79.5336 45.8437C80.255 45.8437 80.7082 46.3593 80.7082 47.1237H78.2816ZM83.8323 49.666V47.4793C83.8323 46.5193 84.351 45.9918 85.3884 45.9918C85.5374 45.9918 85.6686 46.0096 85.7759 46.0215V45.2748C85.6567 45.257 85.5613 45.2511 85.454 45.2511C84.5477 45.2511 84.0588 45.7074 83.8323 46.1933V45.3814H83.0632V49.666H83.8323ZM87.7851 43.6273V44.5873H88.7152V43.6273H87.7851ZM88.6794 45.3814H87.0697V46.0155H87.9222V49.0378H86.8908V49.6719H89.5678V49.0378H88.6794V45.3814ZM91.5352 49.666V47.1059C91.5352 46.4185 91.9824 45.8437 92.7634 45.8437C93.4729 45.8437 93.7412 46.2704 93.7412 47.0822V49.6719H94.5103V46.9874C94.5103 45.8852 93.9081 45.2451 92.9005 45.2451C92.2805 45.2451 91.7618 45.5948 91.5412 45.9681V45.3874H90.7721V49.6719H91.5412L91.5352 49.666ZM97.7298 51.6868C99.107 51.6868 99.8046 50.9579 99.8046 49.4527V45.3814H99.0355V45.9622C98.8089 45.6066 98.3618 45.2392 97.6463 45.2392C96.5195 45.2392 95.661 46.1281 95.661 47.4437C95.661 48.7593 96.4301 49.6245 97.6225 49.6245C98.2604 49.6245 98.8149 49.346 99.0355 48.9134V49.7253C99.0355 50.6794 98.5526 51.0942 97.7357 51.0942C97.0382 51.0942 96.6089 50.6912 96.6089 50.0808H95.8458C95.8458 51.0586 96.591 51.6927 97.7238 51.6927L97.7298 51.6868ZM97.7715 49.026C96.9905 49.026 96.4539 48.4038 96.4539 47.4437C96.4539 46.4837 96.9905 45.8437 97.7715 45.8437C98.5526 45.8437 99.0891 46.5133 99.0891 47.4437C99.0891 48.3741 98.5526 49.026 97.7715 49.026ZM106.911 49.8023C108.092 49.8023 108.771 49.1623 108.855 48.226H108.092C108.014 48.8423 107.591 49.2038 106.953 49.2038C106.118 49.2038 105.564 48.5341 105.564 47.5148C105.564 46.5607 106.112 45.8437 106.935 45.8437C107.573 45.8437 107.967 46.2644 108.038 46.8215H108.825C108.736 45.8496 107.967 45.2392 106.953 45.2392C105.719 45.2392 104.771 46.1637 104.771 47.5148C104.771 49.0378 105.749 49.8023 106.911 49.8023ZM111.896 49.8023C113.13 49.8023 114.018 48.8838 114.018 47.5148C114.018 46.1459 113.13 45.2392 111.896 45.2392C110.661 45.2392 109.773 46.1815 109.773 47.5148C109.773 48.8482 110.65 49.8023 111.896 49.8023ZM111.896 49.2038C111.073 49.2038 110.572 48.5163 110.572 47.5148C110.572 46.5133 111.091 45.8437 111.896 45.8437C112.7 45.8437 113.219 46.5133 113.219 47.5148C113.219 48.5163 112.718 49.2038 111.896 49.2038ZM115.789 49.666V47.0704C115.789 46.4126 116.075 45.8437 116.647 45.8437C117.184 45.8437 117.381 46.2704 117.381 46.9993V49.666H118.114V47.0348C118.114 46.4007 118.388 45.8437 118.984 45.8437C119.521 45.8437 119.712 46.2526 119.712 46.9578V49.6719H120.445V46.8452C120.445 45.7666 119.944 45.2451 119.193 45.2451C118.621 45.2451 118.209 45.577 117.965 46.057C117.768 45.5059 117.357 45.2451 116.88 45.2451C116.403 45.2451 115.992 45.5237 115.789 45.9681V45.3874H115.055V49.6719H115.789V49.666ZM122.234 49.666V47.0704C122.234 46.4126 122.52 45.8437 123.092 45.8437C123.629 45.8437 123.826 46.2704 123.826 46.9993V49.666H124.559V47.0348C124.559 46.4007 124.839 45.8437 125.429 45.8437C125.966 45.8437 126.157 46.2526 126.157 46.9578V49.6719H126.89V46.8452C126.89 45.7666 126.389 45.2451 125.638 45.2451C125.066 45.2451 124.654 45.577 124.41 46.057C124.213 45.5059 123.802 45.2451 123.325 45.2451C122.848 45.2451 122.436 45.5237 122.234 45.9681V45.3874H121.5V49.6719H122.234V49.666ZM129.668 49.8023C130.259 49.8023 130.789 49.5356 130.992 49.0734V49.6719H131.743V45.3874H130.98V47.7282C130.98 48.6645 130.587 49.2156 129.859 49.2156C129.132 49.2156 128.846 48.7593 128.846 47.9356V45.3933H128.077V48.0956C128.077 49.1919 128.613 49.8142 129.662 49.8142L129.668 49.8023ZM134.027 49.666V47.1059C134.027 46.4185 134.474 45.8437 135.255 45.8437C135.964 45.8437 136.233 46.2704 136.233 47.0822V49.6719H137.002V46.9874C137.002 45.8852 136.406 45.2451 135.392 45.2451C134.772 45.2451 134.253 45.5948 134.033 45.9681V45.3874H133.264V49.6719H134.033L134.027 49.666ZM139.172 43.6273V44.5873H140.102V43.6273H139.172ZM140.066 45.3814H138.456V46.0155H139.309V49.0378H138.278V49.6719H140.955V49.0378H140.066V45.3814ZM144.091 49.8023C145.271 49.8023 145.951 49.1623 146.034 48.226H145.271C145.188 48.8423 144.77 49.2038 144.132 49.2038C143.298 49.2038 142.743 48.5341 142.743 47.5148C142.743 46.5607 143.292 45.8437 144.114 45.8437C144.752 45.8437 145.146 46.2644 145.217 46.8215H146.004C145.915 45.8496 145.146 45.2392 144.132 45.2392C142.898 45.2392 141.95 46.1637 141.95 47.5148C141.95 49.0378 142.928 49.8023 144.091 49.8023ZM148.604 49.8023C149.26 49.8023 149.761 49.5356 149.975 49.0912V49.6719H150.708V46.8452C150.708 45.8555 150.118 45.2451 148.997 45.2451C147.877 45.2451 147.262 45.9503 147.233 46.7326H148.002C148.02 46.1992 148.371 45.8496 149.051 45.8496C149.588 45.8496 149.957 46.1163 149.957 46.5904C149.957 46.8393 149.85 46.9756 149.51 47.0289L148.55 47.1711C147.769 47.2956 147.101 47.6689 147.101 48.5045C147.101 49.3401 147.757 49.8142 148.604 49.8142V49.8023ZM148.711 49.2038C148.252 49.2038 147.894 48.9371 147.894 48.4926C147.894 48.0482 148.294 47.8171 148.824 47.7163L149.451 47.5978C149.731 47.5445 149.898 47.4911 149.951 47.4082V48.0423C149.951 48.7356 149.415 49.1979 148.705 49.1979L148.711 49.2038ZM154.53 49.7312C154.745 49.7312 154.959 49.7016 155.138 49.6601V48.9904C154.965 49.0201 154.834 49.026 154.691 49.026C153.934 49.026 153.66 48.7652 153.66 48.0897V46.0096H155.067V45.3755H153.66V43.9592H152.891V45.3755H151.674V46.0096H152.891V48.1904C152.891 49.3105 153.535 49.7312 154.53 49.7312ZM157.1 43.6273V44.5873H158.03V43.6273H157.1ZM157.994 45.3814H156.384V46.0155H157.237V49.0378H156.205V49.6719H158.882V49.0378H157.994V45.3814ZM161.923 49.8023C163.157 49.8023 164.046 48.8838 164.046 47.5148C164.046 46.1459 163.157 45.2392 161.923 45.2392C160.689 45.2392 159.801 46.1815 159.801 47.5148C159.801 48.8482 160.677 49.8023 161.923 49.8023ZM161.923 49.2038C161.1 49.2038 160.6 48.5163 160.6 47.5148C160.6 46.5133 161.118 45.8437 161.923 45.8437C162.728 45.8437 163.247 46.5133 163.247 47.5148C163.247 48.5163 162.746 49.2038 161.923 49.2038ZM166.037 49.666V47.1059C166.037 46.4185 166.484 45.8437 167.265 45.8437C167.969 45.8437 168.243 46.2704 168.243 47.0822V49.6719H169.012V46.9874C169.012 45.8852 168.41 45.2451 167.402 45.2451C166.782 45.2451 166.263 45.5948 166.043 45.9681V45.3874H165.274V49.6719H166.043L166.037 49.666Z" fill="black"></path></g><defs><clipPath id="clip0_2608_7"><rect width="169" height="51" fill="white" transform="translate(0 0.686768)"></rect></clipPath></defs></svg>