<?xml version="1.0" encoding="UTF-8" standalone="no"?>
<!-- Generator: Adobe Illustrator 16.0.4, SVG Export Plug-In . SVG Version: 6.00 Build 0)  -->

<svg
   xmlns:dc="http://purl.org/dc/elements/1.1/"
   xmlns:cc="http://creativecommons.org/ns#"
   xmlns:rdf="http://www.w3.org/1999/02/22-rdf-syntax-ns#"
   xmlns:svg="http://www.w3.org/2000/svg"
   xmlns="http://www.w3.org/2000/svg"
   xmlns:sodipodi="http://sodipodi.sourceforge.net/DTD/sodipodi-0.dtd"
   xmlns:inkscape="http://www.inkscape.org/namespaces/inkscape"
   version="1.2"
   id="Layer_1"
   x="0px"
   y="0px"
   width="270px"
   height="10px"
   viewBox="1.5 0 270 10"
   overflow="scroll"
   xml:space="preserve"
   inkscape:version="0.91 r13725"
   sodipodi:docname="brand.svg"><metadata
     id="metadata6434"><rdf:RDF><cc:Work
         rdf:about=""><dc:format>image/svg+xml</dc:format><dc:type
           rdf:resource="http://purl.org/dc/dcmitype/StillImage" /><dc:title></dc:title></cc:Work></rdf:RDF></metadata><defs
     id="defs6432" /><sodipodi:namedview
     pagecolor="#ffff00"
     bordercolor="#666666"
     borderopacity="1"
     objecttolerance="10"
     gridtolerance="10"
     guidetolerance="10"
     inkscape:pageopacity="0"
     inkscape:pageshadow="2"
     inkscape:window-width="1920"
     inkscape:window-height="1016"
     id="namedview6430"
     showgrid="false"
     inkscape:zoom="4"
     inkscape:cx="177.00047"
     inkscape:cy="-31.677803"
     inkscape:window-x="1680"
     inkscape:window-y="57"
     inkscape:window-maximized="1"
     inkscape:current-layer="text8800" /><g
     style="font-size:169.98464966000000231px;font-style:normal;font-weight:normal;line-height:125%;letter-spacing:0px;word-spacing:0px;fill:#ffffff;fill-opacity:1;stroke:none;font-family:Sans"
     id="text7884"
     transform="matrix(0.07978473,0,0,0.07978473,-55.570223,-77.793268)"
     inkscape:export-filename="/home/andreasn/SparkleShare/rhsc-design/cockpit-logo.png"
     inkscape:export-xdpi="90"
     inkscape:export-ydpi="90"><g
       style="font-size:163.88063049px;line-height:125%;fill:#ffffff;font-family:Sans"
       id="text8800"><path
         d="m 731.88023,1048.2637 0,48.6521 -13.60337,0 0,-116.98903 32.08795,0 c 14.35017,1.1e-4 24.93945,2.74746 31.76788,8.24204 6.88162,5.4948 10.32247,13.76349 10.32256,24.80619 -9e-5,15.4705 -7.84203,25.9264 -23.52583,31.3677 l 31.76787,52.5731 -16.08398,0 -28.32703,-48.6521 -24.40605,0 m 0,-11.6829 18.64462,0 c 9.60233,10e-5 16.64407,-1.8937 21.12524,-5.6814 4.48104,-3.8409 6.72159,-9.5756 6.72167,-17.2043 -8e-5,-7.7351 -2.29398,-13.3098 -6.88171,-16.72411 -4.53452,-3.41407 -11.84299,-5.12116 -21.92543,-5.12127 l -17.68439,0 0,44.73108"
         style="font-variant:normal;font-stretch:normal;fill:#ffffff;font-family:Open Sans;-inkscape-font-specification:Open Sans"
         id="path6072" /><path
         d="m 884.95818,1096.9158 -65.21616,0 0,-116.98903 65.21616,0 0,12.08299 -51.61279,0 0,37.68934 48.49202,0 0,12.003 -48.49202,0 0,43.0507 51.61279,0 0,12.163"
         style="font-variant:normal;font-stretch:normal;fill:#ffffff;font-family:Open Sans;-inkscape-font-specification:Open Sans"
         id="path6074" /><path
         d="m 1004.3478,1037.301 c -10e-5,19.3115 -5.25475,34.0885 -15.76392,44.331 -10.45601,10.1892 -25.5264,15.2838 -45.21121,15.2838 l -32.40804,0 0,-116.98903 35.84889,0 c 18.19111,1.1e-4 32.32793,5.04136 42.41052,15.12375 10.08239,10.08258 15.12366,24.16608 15.12376,42.25048 m -14.40359,0.4801 c -9e-5,-15.257 -3.84104,-26.7532 -11.52285,-34.4885 -7.62864,-7.73519 -18.99144,-11.60281 -34.08845,-11.60292 l -19.7649,0 0,93.46322 16.5641,0 c 16.21729,0 28.40697,-3.9743 36.56907,-11.923 8.16193,-8.002 12.24294,-19.8182 12.24303,-35.4488"
         style="font-variant:normal;font-stretch:normal;fill:#ffffff;font-family:Open Sans;-inkscape-font-specification:Open Sans"
         id="path6076" /><path
         d="m 1161.7468,1096.9158 -13.6034,0 0,-55.0537 -61.6152,0 0,55.0537 -13.6034,0 0,-116.98903 13.6034,0 0,49.77233 61.6152,0 0,-49.77233 13.6034,0 0,116.98903"
         style="font-variant:normal;font-stretch:normal;fill:#ffffff;font-family:Open Sans;-inkscape-font-specification:Open Sans"
         id="path6078" /><path
         d="m 1267.453,1096.9158 -14.5636,-37.2093 -46.8916,0 -14.4036,37.2093 -13.7634,0 46.2515,-117.46915 11.4428,0 46.0114,117.46915 -14.0835,0 m -18.8046,-49.4523 -13.6034,-36.249 c -1.7605,-4.5877 -3.5743,-10.2157 -5.4414,-16.88416 -1.1736,5.12136 -2.854,10.74946 -5.0412,16.88416 l -13.7634,36.249 37.8494,0"
         style="font-variant:normal;font-stretch:normal;fill:#ffffff;font-family:Open Sans;-inkscape-font-specification:Open Sans"
         id="path6080" /><path
         d="m 1333.6294,1096.9158 -13.6034,0 0,-104.90604 -37.0491,0 0,-12.08299 87.7017,0 0,12.08299 -37.0492,0 0,104.90604"
         style="font-variant:normal;font-stretch:normal;fill:#ffffff;font-family:Open Sans;-inkscape-font-specification:Open Sans"
         id="path6082" /><path
         d="m 1495.9897,1096.9158 -65.2162,0 0,-116.98903 65.2162,0 0,12.08299 -51.6128,0 0,37.68934 48.492,0 0,12.003 -48.492,0 0,43.0507 51.6128,0 0,12.163"
         style="font-variant:normal;font-stretch:normal;fill:#ffffff;font-family:Open Sans;-inkscape-font-specification:Open Sans"
         id="path6084" /><path
         d="m 1613.3788,1096.9158 -15.5239,0 -63.9358,-98.18437 -0.6402,0 c 0.8535,11.52297 1.2803,22.08557 1.2803,31.68787 l 0,66.4965 -12.5631,0 0,-116.98903 15.3638,0 63.7758,97.78423 0.6402,0 c -0.1068,-1.4403 -0.3469,-6.0548 -0.7202,-13.8434 -0.3735,-7.8419 -0.5069,-13.4433 -0.4001,-16.8042 l 0,-67.13663 12.7232,0 0,116.98903"
         style="font-variant:normal;font-stretch:normal;fill:#ffffff;font-family:Open Sans;-inkscape-font-specification:Open Sans"
         id="path6086" /><path
         d="m 1681.5557,1096.9158 -13.6034,0 0,-104.90604 -37.0492,0 0,-12.08299 87.7018,0 0,12.08299 -37.0492,0 0,104.90604"
         style="font-variant:normal;font-stretch:normal;fill:#ffffff;font-family:Open Sans;-inkscape-font-specification:Open Sans"
         id="path6088" /><path
         d="m 1801.3454,1096.9158 -65.2162,0 0,-116.98903 65.2162,0 0,12.08299 -51.6128,0 0,37.68934 48.492,0 0,12.003 -48.492,0 0,43.0507 51.6128,0 0,12.163"
         style="font-variant:normal;font-stretch:normal;fill:#ffffff;font-family:Open Sans;-inkscape-font-specification:Open Sans"
         id="path6090" /><path
         d="m 1840.9552,1048.2637 0,48.6521 -13.6034,0 0,-116.98903 32.088,0 c 14.3501,1.1e-4 24.9394,2.74746 31.7678,8.24204 6.8817,5.4948 10.3225,13.76349 10.3226,24.80619 -10e-5,15.4705 -7.842,25.9264 -23.5258,31.3677 l 31.7678,52.5731 -16.0839,0 -28.3271,-48.6521 -24.406,0 m 0,-11.6829 18.6446,0 c 9.6023,10e-5 16.6441,-1.8937 21.1252,-5.6814 4.4811,-3.8409 6.7216,-9.5756 6.7217,-17.2043 -10e-5,-7.7351 -2.294,-13.3098 -6.8817,-16.72411 -4.5345,-3.41407 -11.843,-5.12116 -21.9254,-5.12127 l -17.6844,0 0,44.73108"
         style="font-variant:normal;font-stretch:normal;fill:#ffffff;font-family:Open Sans;-inkscape-font-specification:Open Sans"
         id="path6092" /><path
         d="m 2002.9954,1014.0152 c -10e-5,11.843 -4.0544,20.9653 -12.163,27.3668 -8.0554,6.3483 -19.6049,9.5224 -34.6486,9.5224 l -13.7634,0 0,46.0114 -13.6034,0 0,-116.98903 30.3275,0 c 29.2339,1.1e-4 43.8508,11.36292 43.8509,34.08843 m -60.575,25.2063 12.243,0 c 12.0563,0 20.7785,-1.9471 26.1665,-5.8415 5.3879,-3.8942 8.0819,-10.1358 8.082,-18.7246 -10e-5,-7.7352 -2.534,-13.4966 -7.6019,-17.28431 -5.068,-3.7875 -12.9632,-5.6813 -23.6858,-5.68141 l -15.2038,0 0,47.53182"
         style="font-variant:normal;font-stretch:normal;fill:#ffffff;font-family:Open Sans;-inkscape-font-specification:Open Sans"
         id="path6094" /><path
         d="m 2041.0047,1048.2637 0,48.6521 -13.6033,0 0,-116.98903 32.0879,0 c 14.3502,1.1e-4 24.9395,2.74746 31.7679,8.24204 6.8816,5.4948 10.3225,13.76349 10.3226,24.80619 -1e-4,15.4705 -7.8421,25.9264 -23.5259,31.3677 l 31.7679,52.5731 -16.084,0 -28.327,-48.6521 -24.4061,0 m 0,-11.6829 18.6447,0 c 9.6023,10e-5 16.644,-1.8937 21.1252,-5.6814 4.481,-3.8409 6.7216,-9.5756 6.7217,-17.2043 -10e-5,-7.7351 -2.294,-13.3098 -6.8817,-16.72411 -4.5346,-3.41407 -11.843,-5.12116 -21.9255,-5.12127 l -17.6844,0 0,44.73108"
         style="font-variant:normal;font-stretch:normal;fill:#ffffff;font-family:Open Sans;-inkscape-font-specification:Open Sans"
         id="path6096" /><path
         d="m 2128.8666,1096.9158 0,-116.98903 13.6034,0 0,116.98903 -13.6034,0"
         style="font-variant:normal;font-stretch:normal;fill:#ffffff;font-family:Open Sans;-inkscape-font-specification:Open Sans"
         id="path6098" /><path
         d="m 2240.6543,1065.7881 c -1e-4,10.2959 -3.7343,18.3245 -11.2028,24.0859 -7.4685,5.7615 -17.6044,8.6422 -30.4075,8.6422 -13.8701,0 -24.5394,-1.7871 -32.0079,-5.3614 l 0,-13.1232 c 4.8011,2.0272 10.0291,3.6276 15.6838,4.8012 5.6548,1.1736 11.2561,1.7604 16.8042,1.7604 9.0689,0 15.8972,-1.7071 20.4851,-5.1213 4.5877,-3.4675 6.8816,-8.2687 6.8817,-14.4035 -10e-5,-4.0543 -0.8269,-7.3618 -2.4806,-9.9225 -1.6005,-2.6139 -4.3212,-5.0145 -8.162,-7.2018 -3.7877,-2.1871 -9.5758,-4.6677 -17.3643,-7.4418 -10.8828,-3.8943 -18.6714,-8.5087 -23.3658,-13.8435 -4.6412,-5.3345 -6.9618,-12.2963 -6.9618,-20.8851 0,-9.0155 3.3875,-16.1906 10.1626,-21.52537 6.7749,-5.33454 15.7372,-8.00186 26.8866,-8.00198 11.6295,1.2e-4 22.3255,2.13398 32.088,6.40159 l -4.2411,11.84293 c -9.6558,-4.05423 -19.0448,-6.0814 -28.167,-6.0815 -7.2018,1e-4 -12.8298,1.54715 -16.8841,4.64115 -4.0544,3.0942 -6.0816,7.38858 -6.0816,12.88318 0,4.0544 0.7469,7.3886 2.2406,10.0025 1.4937,2.5607 4.001,4.9346 7.5219,7.1218 3.5742,2.1339 9.0155,4.5078 16.324,7.1217 12.2697,4.3745 20.6984,9.069 25.2863,14.0835 4.6411,5.0146 6.9616,11.5229 6.9617,19.5249"
         style="font-variant:normal;font-stretch:normal;fill:#ffffff;font-family:Open Sans;-inkscape-font-specification:Open Sans"
         id="path6100" /><path
         d="m 2329.7964,1096.9158 -65.2162,0 0,-116.98903 65.2162,0 0,12.08299 -51.6128,0 0,37.68934 48.492,0 0,12.003 -48.492,0 0,43.0507 51.6128,0 0,12.163"
         style="font-variant:normal;font-stretch:normal;fill:#ffffff;font-family:Open Sans;-inkscape-font-specification:Open Sans"
         id="path6102" /><path
         d="m 2398.3734,1096.9158 0,-116.98903 13.6034,0 0,104.66593 51.6128,0 0,12.3231 -65.2162,0"
         style="font-variant:normal;font-stretch:normal;fill:#ffffff;font-family:Open Sans;-inkscape-font-specification:Open Sans"
         id="path6104" /><path
         d="m 2483.5145,1096.9158 0,-116.98903 13.6034,0 0,116.98903 -13.6034,0"
         style="font-variant:normal;font-stretch:normal;fill:#ffffff;font-family:Open Sans;-inkscape-font-specification:Open Sans"
         id="path6106" /><path
         d="m 2620.6685,1096.9158 -15.5238,0 -63.9359,-98.18437 -0.6401,0 c 0.8535,11.52297 1.2803,22.08557 1.2803,31.68787 l 0,66.4965 -12.5631,0 0,-116.98903 15.3638,0 63.7758,97.78423 0.6402,0 c -0.1068,-1.4403 -0.3469,-6.0548 -0.7202,-13.8434 -0.3735,-7.8419 -0.5069,-13.4433 -0.4001,-16.8042 l 0,-67.13663 12.7231,0 0,116.98903"
         style="font-variant:normal;font-stretch:normal;fill:#ffffff;font-family:Open Sans;-inkscape-font-specification:Open Sans"
         id="path6108" /><path
         d="m 2741.1783,979.92677 0,75.69873 c -1e-4,13.3367 -4.0277,23.8193 -12.083,31.4478 -8.0554,7.6286 -19.1248,11.4429 -33.2082,11.4429 -14.0835,0 -24.9929,-3.841 -32.7281,-11.5229 -7.6819,-7.6819 -11.5229,-18.2445 -11.5229,-31.6878 l 0,-75.37873 13.6034,0 0,76.33893 c 0,9.7624 2.6673,17.2576 8.002,22.4856 5.3346,5.2279 13.1765,7.8419 23.5258,7.8419 9.8691,0 17.4709,-2.614 22.8057,-7.8419 5.3345,-5.2813 8.0019,-12.8298 8.002,-22.6456 l 0,-76.17893 13.6033,0"
         style="font-variant:normal;font-stretch:normal;fill:#ffffff;font-family:Open Sans;-inkscape-font-specification:Open Sans"
         id="path6110" /><path
         d="m 2850.0854,1096.9158 -15.4438,0 -31.4478,-51.4528 -32.008,51.4528 -14.4036,0 38.8897,-61.1352 -36.249,-55.85383 15.0437,0 29.0472,46.33153 29.2873,-46.33153 14.4836,0 -36.249,55.37373 39.0497,61.6153"
         style="font-variant:normal;font-stretch:normal;fill:#ffffff;font-family:Open Sans;-inkscape-font-specification:Open Sans"
         id="path6112" /></g></g></svg>