<?xml version="1.0" encoding="UTF-8" standalone="no"?>
<!-- Generator: Adobe Illustrator 16.0.4, SVG Export Plug-In . SVG Version: 6.00 Build 0)  -->

<svg
   xmlns:dc="http://purl.org/dc/elements/1.1/"
   xmlns:cc="http://creativecommons.org/ns#"
   xmlns:rdf="http://www.w3.org/1999/02/22-rdf-syntax-ns#"
   xmlns:svg="http://www.w3.org/2000/svg"
   xmlns="http://www.w3.org/2000/svg"
   xmlns:sodipodi="http://sodipodi.sourceforge.net/DTD/sodipodi-0.dtd"
   xmlns:inkscape="http://www.inkscape.org/namespaces/inkscape"
   version="1.2"
   id="Layer_1"
   x="0px"
   y="0px"
   width="270px"
   height="10px"
   viewBox="1.5 0 270 10"
   overflow="scroll"
   xml:space="preserve"
   inkscape:version="0.91 r13725"
   sodipodi:docname="brand.svg"><metadata
     id="metadata6434"><rdf:RDF><cc:Work
         rdf:about=""><dc:format>image/svg+xml</dc:format><dc:type
           rdf:resource="http://purl.org/dc/dcmitype/StillImage" /></cc:Work></rdf:RDF></metadata><defs
     id="defs6432" /><sodipodi:namedview
     pagecolor="#ffffff"
     bordercolor="#666666"
     borderopacity="1"
     objecttolerance="10"
     gridtolerance="10"
     guidetolerance="10"
     inkscape:pageopacity="0"
     inkscape:pageshadow="2"
     inkscape:window-width="1920"
     inkscape:window-height="1016"
     id="namedview6430"
     showgrid="false"
     inkscape:zoom="2.011326"
     inkscape:cx="16.955484"
     inkscape:cy="-54.464202"
     inkscape:window-x="0"
     inkscape:window-y="27"
     inkscape:window-maximized="1"
     inkscape:current-layer="Layer_1" /><path
     inkscape:connector-curvature="0"
     d="m 9.3331326,9.8213967 -4.0688793,0 c -0.4125958,0 -0.8208014,-0.059721 -1.2246106,-0.1791882 C 3.2583452,9.3941291 2.6394526,8.8244322 2.1829674,7.9331324 1.7703702,7.1245429 1.564074,6.1827099 1.564074,5.1076431 c 0,-1.0382967 0.1843495,-1.9571567 0.5530539,-2.75657 C 2.5209405,1.4689791 3.0959411,0.86712905 3.842121,0.54552082 4.4215053,0.29743814 5.0140597,0.17339382 5.6197893,0.17338326 l 3.6870084,0 0,1.84690074 -3.8318554,0 C 4.8516575,2.0202939 4.3995599,2.3740527 4.118647,3.0815671 3.8991793,3.6328879 3.7894491,4.3541859 3.7894491,5.2454745 c 0,0.7534671 0.1404555,1.3920727 0.4213743,1.915818 0.324803,0.6156351 0.7812936,0.9234543 1.3694581,0.9234497 l 3.7528511,-0.013791 0,1.7504368 m 6.7765304,0.04134 -3.212969,0 c -0.781297,0 -1.461637,-0.3491641 -2.041022,-1.0474917 C 10.285065,8.107704 9.9997591,7.2945175 9.9997591,6.3756583 c 0,-1.0015518 0.3116399,-1.8652769 0.9349219,-2.5911779 0.632053,-0.7350824 1.334338,-1.1026216 2.106857,-1.1026262 l 3.054961,0 0,1.4747625 -2.238547,0 c -0.280917,7.3e-6 -0.522325,0.027556 -0.724234,0.082698 -0.193136,0.04595 -0.373093,0.1424284 -0.539886,0.2894372 -0.307254,0.2756654 -0.460876,0.6478029 -0.460874,1.1164121 l 3.95037,0 0,1.4885501 -3.9372,0 c -3e-6,0.2205291 0.02194,0.4088937 0.06583,0.5650965 0.05267,0.1470188 0.153626,0.2986298 0.302863,0.4548373 0.149236,0.1470161 0.324807,0.2480946 0.526713,0.303217 0.210686,0.04595 0.465267,0.068934 0.763748,0.068934 l 2.304377,0 0,1.3369288 m 7.508993,-0.04134 -1.830338,0 0,-4.6999696 c -6e-6,-0.1194494 -0.02633,-0.2251163 -0.07901,-0.3170046 C 21.656632,4.7033458 21.582016,4.6068656 21.485452,4.5149725 21.309879,4.3587743 21.107972,4.2806716 20.879734,4.2806676 l -1.790835,0 0,5.5407212 -1.830339,0 0,-7.139532 3.502659,0 c 0.623278,4.6e-6 1.075376,0.036757 1.356293,0.1102586 0.438925,0.1102724 0.790071,0.3537654 1.053436,0.7304927 0.298463,0.4410562 0.447699,0.9234584 0.447705,1.4472004 l 0,4.8515803 m 5.256876,-5.6509857 -1.777668,0 0,3.2389707 c 0,0.2940381 0.09656,0.5375337 0.289693,0.7304941 0.219461,0.1929616 0.509154,0.2894385 0.869083,0.2894385 l 0.539883,0 0,1.3920824 -1.698659,0 c -0.509162,0 -0.943702,-0.192972 -1.303622,-0.5788774 C 25.583551,9.0127935 25.447486,8.760094 25.386033,8.4844347 25.324581,8.2087839 25.293858,7.8825886 25.293864,7.5058579 l 0,-3.3354548 -1.158779,0 0,-1.4885463 1.158779,0 0,-2.50847949 1.803997,0 0,2.50847949 1.777668,0 0,1.4885463 m 10.745625,0.8131872 c -1.4e-5,1.8744733 -0.496007,3.2160049 -1.487979,4.0246043 -0.807639,0.652384 -1.98397,0.9785844 -3.528997,0.9785844 -1.71183,0 -2.975947,-0.3767251 -3.792355,-1.1301962 -0.895415,-0.8269768 -1.343122,-2.154724 -1.343122,-3.9832538 0,-1.4977331 0.399423,-2.6646784 1.198279,-3.5008459 0.869075,-0.90966002 2.168306,-1.364496 3.897695,-1.36450327 1.904953,7.27e-6 3.248071,0.43646846 4.029379,1.30937027 0.684722,0.7718466 1.027086,1.9939269 1.0271,3.6662402 M 37.27726,4.9284589 C 37.277253,3.9820446 37.062176,3.2285808 36.632036,2.6680733 36.149205,2.0432554 35.43375,1.7308451 34.485665,1.7308346 c -0.930532,1.05e-5 -1.632819,0.3353926 -2.106859,1.0061488 -0.395044,0.5605121 -0.592559,1.2910021 -0.592556,2.1914755 -3e-6,1.0383152 0.158015,1.8055634 0.474045,2.3017406 0.438923,0.6891429 1.250945,1.0337143 2.43606,1.033711 1.000752,3.3e-6 1.703039,-0.3353768 2.106862,-1.0061449 0.316022,-0.5237433 0.474036,-1.3001802 0.474043,-2.3293067 m 12.884173,1.9020349 c -1.4e-5,0.8453517 -0.267755,1.5574663 -0.803233,2.1363565 -0.535511,0.5788783 -1.215847,0.8683199 -2.041034,0.8683199 l -6.518109,-0.013793 0,-1.7366553 5.372505,0 c 0.35992,4e-6 0.66278,-0.08729 0.908587,-0.2618724 0.280906,-0.2021457 0.421366,-0.4778038 0.421372,-0.8269695 -6e-6,-0.817782 -0.55306,-1.2266725 -1.65916,-1.2266752 l -2.712586,0 c -0.781299,2.7e-6 -1.466029,-0.2526829 -2.054192,-0.7580594 -0.588165,-0.5053666 -0.88225,-1.1485653 -0.88225,-1.9295999 0,-0.8637191 0.285304,-1.5620481 0.855914,-2.09499206 C 41.628632,0.4444365 42.38798,0.1733741 43.327295,0.1733642 l 6.228417,0 0,1.6539392 -5.491015,0 c -0.245801,8.5e-6 -0.495994,0.1102724 -0.750573,0.3307935 -0.2458,0.2113398 -0.368703,0.4640268 -0.368698,0.7580563 -5e-6,0.3307929 0.118506,0.6110454 0.355535,0.8407546 0.245794,0.2205297 0.539883,0.330793 0.882248,0.3307884 l 2.989111,0 c 0.930523,4.6e-6 1.65914,0.2526889 2.18588,0.7580576 0.535478,0.4961871 0.803219,1.1577618 0.803233,1.9847319"
     id="text5083-9"
     style="font-style:normal;font-variant:normal;font-weight:200;font-stretch:normal;font-size:72.67242432px;line-height:125%;font-family:Denmark;-inkscape-font-specification:'Denmark Ultra-Light';text-align:start;writing-mode:lr-tb;text-anchor:start;display:inline;fill:#ffffff;fill-opacity:1;stroke:none" /></svg>