<?xml version="1.0" encoding="UTF-8" standalone="no"?>
<!-- Created with Inkscape (http://www.inkscape.org/) -->

<svg
   xmlns:dc="http://purl.org/dc/elements/1.1/"
   xmlns:cc="http://creativecommons.org/ns#"
   xmlns:rdf="http://www.w3.org/1999/02/22-rdf-syntax-ns#"
   xmlns:svg="http://www.w3.org/2000/svg"
   xmlns="http://www.w3.org/2000/svg"
   xmlns:sodipodi="http://sodipodi.sourceforge.net/DTD/sodipodi-0.dtd"
   xmlns:inkscape="http://www.inkscape.org/namespaces/inkscape"
   version="1.0"
   width="115"
   height="35"
   id="svg6180"
   inkscape:version="0.48.5 r10040"
   sodipodi:docname="logo.v1.svg"
   inkscape:export-filename="/home/andreasn/development/cockpit/src/static/images/logo.v1.png"
   inkscape:export-xdpi="90"
   inkscape:export-ydpi="90">
  <metadata
     id="metadata3409">
    <rdf:RDF>
      <cc:Work
         rdf:about="">
        <dc:format>image/svg+xml</dc:format>
        <dc:type
           rdf:resource="http://purl.org/dc/dcmitype/StillImage" />
        <dc:title />
      </cc:Work>
    </rdf:RDF>
  </metadata>
  <sodipodi:namedview
     pagecolor="#ffffff"
     bordercolor="#666666"
     borderopacity="1"
     objecttolerance="10"
     gridtolerance="10"
     guidetolerance="10"
     inkscape:pageopacity="0"
     inkscape:pageshadow="2"
     inkscape:window-width="1920"
     inkscape:window-height="1014"
     id="namedview3407"
     showgrid="false"
     fit-margin-top="0"
     fit-margin-left="0"
     fit-margin-right="0"
     fit-margin-bottom="0"
     inkscape:zoom="7.5564002"
     inkscape:cx="102.78563"
     inkscape:cy="14.459912"
     inkscape:window-x="0"
     inkscape:window-y="27"
     inkscape:window-maximized="1"
     inkscape:current-layer="svg6180">
    <inkscape:grid
       type="xygrid"
       id="grid6061"
       empspacing="5"
       visible="true"
       enabled="true"
       snapvisiblegridlinesonly="true" />
  </sodipodi:namedview>
  <defs
     id="defs6182" />
  <g
     transform="matrix(0.60117978,0,0,0.60117978,-170.46746,-212.04583)"
     id="layer1"
     style="opacity:0.66500005">
    <path
       d="m 335.48904,390.09482 c 0,0 0,0 -20.53889,0 0.3327,4.45245 3.92157,7.77609 8.70715,7.77609 3.38983,0 6.31456,-1.39616 8.64094,-3.65507 0.46553,-0.46679 0.99726,-0.59962 1.59519,-0.59962 0.79781,0 1.59561,0.39932 2.12692,1.06388 0.3327,0.46553 0.53216,0.99726 0.53216,1.52857 0,0.73118 -0.3327,1.52857 -0.93106,2.12734 -2.7919,2.99052 -7.51086,4.98503 -12.16403,4.98503 -8.44149,0 -15.22074,-6.77967 -15.22074,-15.22158 0,-8.44149 6.58022,-15.22074 15.02171,-15.22074 8.37529,0 14.62323,6.51317 14.62323,15.08749 0,1.26418 -1.12924,2.12861 -2.39258,2.12861 z M 323.25839,378.3297 c -4.45329,0 -7.51085,2.92473 -8.17499,7.17731 10.03626,0 16.35083,0 16.35083,0 -0.59836,-4.05355 -3.78874,-7.17731 -8.17584,-7.17731 z"
       id="path11"
       style="fill:#ffffff"
       inkscape:connector-curvature="0" />
    <path
       d="m 394.17888,403.32189 c -8.44106,0 -15.22074,-6.77968 -15.22074,-15.22159 0,-8.44149 6.77968,-15.22074 15.22074,-15.22074 8.44234,0 15.22159,6.77925 15.22159,15.22074 -4.2e-4,8.44149 -6.77968,15.22159 -15.22159,15.22159 z m 0,-24.65992 c -5.31688,0 -8.77377,4.25427 -8.77377,9.43833 0,5.18364 3.45689,9.43833 8.77377,9.43833 5.31731,0 8.77504,-4.25469 8.77504,-9.43833 -4.2e-4,-5.18406 -3.45773,-9.43833 -8.77504,-9.43833 z"
       id="path13"
       style="fill:#ffffff"
       inkscape:connector-curvature="0" />
    <path
       d="m 431.37727,372.87956 c -4.45963,0 -7.40966,1.319 -10.01391,4.62956 l -0.24036,-1.53995 0,0 c -0.20198,-1.60743 -1.57326,-2.84926 -3.23382,-2.84926 -1.80139,0 -3.26206,1.459 -3.26206,3.26081 0,0.003 0,0.005 0,0.008 l 0,0 0,0.003 0,0 0,23.40712 c 0,1.79464 1.46194,3.25743 3.257,3.25743 1.79465,0 3.25744,-1.46279 3.25744,-3.25743 l 0,-12.56209 c 0,-5.71621 4.98502,-8.57432 10.23613,-8.57432 1.59519,0 2.85726,-1.32953 2.85726,-2.92515 0,-1.59561 -1.26207,-2.85726 -2.85768,-2.85726 z"
       id="path15"
       style="fill:#ffffff"
       inkscape:connector-curvature="0" />
    <path
       d="m 465.74158,388.1003 c 0.0666,-8.17541 -5.78326,-15.22074 -15.222,-15.22074 -8.44192,0 -15.28779,6.77925 -15.28779,15.22074 0,8.44191 6.64684,15.22159 14.68985,15.22159 4.01434,0 7.62682,-2.06621 9.23846,-4.22518 l 0.79359,2.01434 0,0 c 0.42589,1.13177 1.5176,1.93717 2.7978,1.93717 1.65001,0 2.98756,-1.33671 2.99009,-2.98545 l 0,0 0,-7.80687 0,0 0,-4.1556 z m -15.222,9.43833 c -5.31773,0 -8.77419,-4.25469 -8.77419,-9.43833 0,-5.18406 3.45604,-9.43833 8.77419,-9.43833 5.3173,0 8.77419,4.25427 8.77419,9.43833 0,5.18364 -3.45689,9.43833 -8.77419,9.43833 z"
       id="path17"
       style="fill:#ffffff"
       inkscape:connector-curvature="0" />
    <path
       d="m 373.73023,360.84752 c 0,-1.7938 -1.46194,-3.18997 -3.25659,-3.18997 -1.79422,0 -3.25743,1.39659 -3.25743,3.18997 l 0,17.1499 c -1.66097,-3.05756 -5.25026,-5.11786 -9.50495,-5.11786 -8.64052,0 -14.42336,6.51318 -14.42336,15.22074 0,8.70757 5.98229,15.22159 14.42336,15.22159 3.76555,0 7.03057,-1.55429 8.98587,-4.25554 l 0.72317,1.83428 c 0.44782,1.25912 1.64917,2.16024 3.06051,2.16024 1.78621,0 3.24984,-1.45435 3.24984,-3.24815 0,-0.005 0,-0.009 0,-0.0139 l 0,0 0,-38.95128 -4.2e-4,0 z m -15.22116,36.69111 c -5.31731,0 -8.70715,-4.25469 -8.70715,-9.43833 0,-5.18406 3.38984,-9.43833 8.70715,-9.43833 5.31773,0 8.70714,4.0544 8.70714,9.43833 0,5.38309 -3.38941,9.43833 -8.70714,9.43833 z"
       id="path19"
       style="fill:#ffffff"
       inkscape:connector-curvature="0" />
    <path
       d="m 305.93097,357.85405 c -0.59414,-0.0877 -1.19966,-0.13198 -1.80097,-0.13198 -6.73118,0 -12.20746,5.4767 -12.20746,12.20788 l 0,3.8132 -3.98903,0 c -1.46237,0 -2.65908,1.19671 -2.65908,2.65781 0,1.46321 1.19671,2.93738 2.65908,2.93738 l 3.98819,0 0,20.46004 c 0,1.79464 1.46236,3.25743 3.25658,3.25743 1.79507,0 3.25744,-1.46279 3.25744,-3.25743 l 0,-20.46004 4.40986,0 c 1.46194,0 2.65823,-1.47417 2.65823,-2.93738 0,-1.46152 -1.19629,-2.65823 -2.65823,-2.65823 l -4.40733,0 0,-3.8132 c 0,-3.13852 2.55323,-6.11469 5.69175,-6.11469 0.28294,0 0.56757,0.0211 0.84672,0.062 1.78031,0.26355 3.4358,-0.54269 3.70019,-2.32342 0.2627,-1.77904 -0.96606,-3.43538 -2.74594,-3.69935 z"
       id="path21"
       style="fill:#ffffff"
       inkscape:connector-curvature="0" />
  </g>
  <path
     d="m 110.4385,28.145917 1.69267,0 0,0.227835 -0.71029,0 0,1.77309 -0.27207,0 0,-1.77309 -0.71031,0 0,-0.227835 m 1.96071,0 0.4034,0 0.51063,1.361647 0.5133,-1.361647 0.4034,0 0,2.000925 -0.26403,0 0,-1.75701 -0.51598,1.372367 -0.27205,0 -0.51599,-1.372367 0,1.75701 -0.26268,0 0,-2.000925"
     id="path2391"
     style="opacity:0.66500005;fill:#ffffff;enable-background:new"
     inkscape:connector-curvature="0" />
</svg>
